<svg width="256" height="256" viewBox="0 0 256 256" fill="none" xmlns="http://www.w3.org/2000/svg">
<path fill-rule="evenodd" clip-rule="evenodd" d="M167.107 36.1413C169.779 48.3695 156.886 61.358 138.31 65.1518C131.698 66.5021 125.258 66.5056 119.584 65.3988V80.4719C122.943 78.9148 126.659 77.6814 130.635 76.8693C149.211 73.0755 166.436 79.913 169.107 92.1413C171.779 104.37 158.886 117.358 140.31 121.152C132.908 122.663 125.721 122.487 119.584 120.955V136.008C122.453 134.821 125.553 133.866 128.83 133.196C147.406 129.403 164.631 136.24 167.302 148.468C169.974 160.697 157.081 173.685 138.505 177.479C131.817 178.845 125.305 178.833 119.584 177.687V226C119.584 231.523 115.107 236 109.584 236C104.061 236 99.584 231.523 99.584 226V48.3503C98.2485 36.5867 110.832 24.5053 128.635 20.8693C147.211 17.0755 164.436 23.913 167.107 36.1413ZM71.448 80.84L15 116.84V133.544L71.448 169.544V147.368L35.16 125.48V124.904L71.448 103.016V80.84ZM184.807 169.544L241.256 133.544V116.84L184.807 80.84V103.016L221.096 124.904V125.48L184.807 147.368V169.544Z" fill="#FAFAFA"/>
</svg>
