<svg width="32" height="32" viewBox="0 0 32 32" fill="none" xmlns="http://www.w3.org/2000/svg">
<path fill-rule="evenodd" clip-rule="evenodd" d="M20.5134 4.14266C20.8474 5.67119 19.2358 7.29475 16.9137 7.76898C15.6901 8.01889 14.5133 7.89974 13.625 7.5074V9.53086C14.2241 9.11008 14.9791 8.78232 15.8294 8.60866C18.1514 8.13444 20.3045 8.98912 20.6384 10.5177C20.9724 12.0462 19.3608 13.6698 17.0387 14.144C15.7568 14.4058 14.5263 14.2625 13.625 13.8245V17.6723C14.1837 17.3235 14.857 17.0521 15.6038 16.8996C17.9258 16.4253 20.0789 17.28 20.4128 18.8085C20.7468 20.3371 19.1351 21.9606 16.8131 22.4349C15.6351 22.6755 14.5006 22.574 13.625 22.2161V28.9375C13.625 29.3862 13.2612 29.75 12.8125 29.75C12.3638 29.75 12 29.3862 12 28.9375V20.5066C11.9461 20.2469 11.9481 19.9846 12 19.7259V5.5625C12 5.44074 12.0268 5.32523 12.0748 5.22155C12.2317 3.90303 13.7046 2.64209 15.7044 2.23366C18.0264 1.75944 20.1795 2.61412 20.5134 4.14266ZM1.94705 16.887L8.78705 21.423V19.497L3.69305 16.185V16.113L8.78705 12.801V10.875L1.94705 15.411V16.887ZM23.245 19.497V21.423L30.085 16.887V15.411L23.245 10.875V12.801L28.339 16.113V16.185L23.245 19.497Z" fill="#FAFAFA"/>
</svg>
